<svg version="1.1" id="Layer_1" xmlns="http://www.w3.org/2000/svg" xmlns:xlink="http://www.w3.org/1999/xlink" x="0px" y="0px" viewBox="0 0 1000 1000" enable-background="new 0 0 1000 1000" xml:space="preserve">
<g>
	<circle fill="#FFFFFF" cx="500" cy="500" r="189.5"></circle>
	<path fill-rule="evenodd" clip-rule="evenodd" fill="#FFFFFF" d="M500,200.9c-165.2,0-299.1,133.9-299.1,299.1
		S334.8,799.1,500,799.1S799.1,665.2,799.1,500S665.2,200.9,500,200.9z M181.4,500c0-176,142.7-318.6,318.6-318.6
		S818.6,324,818.6,500S676,818.6,500,818.6S181.4,676,181.4,500z"></path>
	<path fill="#FFFFFF" d="M310.5,500c0-104.6,84.8-189.5,189.5-189.5c104.6,0,189.5,84.8,189.5,189.5c0,104.6-84.8,189.4-189.5,189.5
		C395.4,689.5,310.5,604.6,310.5,500z M373.6,373.6c-32.4,32.4-52.4,77-52.4,126.4s20,94,52.4,126.4s77,52.4,126.4,52.4
		s94-20,126.4-52.4s52.4-77,52.4-126.4s-20-94-52.4-126.4s-77-52.4-126.4-52.4C450.6,321.2,406,341.2,373.6,373.6z"></path>
	<path fill="#0066AD" d="M310.5,500H500V310.5l0,0C395.4,310.5,310.5,395.4,310.5,500z"></path>
	<path fill="#0066AD" d="M689.5,500H500v189.5l0,0C604.6,689.5,689.5,604.6,689.5,500z"></path>
	<path fill="#FFFFFF" d="M720.8,323.5L678.4,352l20.1-39.6c-5.2-6.3-13.1-12.8-13.1-12.8l-38.8,19.7L675,277
		c-4.7-4-10.2-7.4-15.4-11.4l-39.8,62.9c0,0,7.5,4.5,16.8,13.1l41.2-21.6l-21.6,41.1c4.9,5.2,9.2,11.5,13.7,17.1l62.7-39.3
		C732.5,339,728.7,332.9,720.8,323.5z M504.5,280.6l19.1-42.8l1.7,54.2c7.7,0.3,19,3.3,19,3.3l-3.4-76.8
		c-14.4-2.1-25.9-2.7-25.9-2.7l-18.4,46.4l-18-46c0,0-11.9,1.2-26.3,3.3l-3.4,77.4c0,0,11.4-3.3,19.1-3.7l1.6-55.1l19.2,42.5
		L504.5,280.6L504.5,280.6z M342.8,305.8L342.8,305.8c0.9-3.5,0.9-7.2-0.1-10.6s-2.9-6.5-5.5-8.9c-7.8-7.2-19.3-7.4-31.6,5.1
		c0,0-22.7,23.1-38.1,45.7l55.3,51.1l41.6-47.3c9.1-10.1,9.4-24.5,1.1-32.2C359.3,302.8,350.3,302,342.8,305.8z M289.5,333.2
		c19.6-24.6,27.4-31.3,27.4-31.3c5.1-4.5,8.9-4.9,12-2c3.1,2.8,2.7,8.4-0.9,12.3l-27.7,31.1L289.5,333.2z M351.7,331.1l-29.1,32.7
		l-10.9-10.1l29.1-32.7c3.6-4,8.9-4.9,11.9-2.2C355.7,321.7,355.3,327.2,351.7,331.1z"></path>
</g>
</svg>