<svg version="1.1" id="Layer_1" xmlns="http://www.w3.org/2000/svg" xmlns:xlink="http://www.w3.org/1999/xlink" x="0px" y="0px" viewBox="0 0 1000 1000" enable-background="new 0 0 1000 1000" xml:space="preserve">
<path fill-rule="evenodd" clip-rule="evenodd" fill="#FFFFFF" d="M824.3,325.7c-39.2,0-77.3,13.2-108.1,37.6
	c-30.7-24.4-68.9-37.6-108.1-37.6c-39.2,0-77.3,13.2-108.1,37.6c-30.7-24.4-68.9-37.6-108.1-37.6s-77.3,13.2-108.1,37.6
	c-30.7-24.4-68.9-37.6-108.1-37.6c-96.4,0-174.4,78-174.4,174.3s78,174.3,174.3,174.3c39.2,0,77.3-13.2,108.1-37.6
	c30.7,24.4,68.9,37.6,108.1,37.6s77.3-13.2,108.1-37.6c30.7,24.4,68.9,37.6,108.1,37.6c39.2,0,77.3-13.2,108.1-37.6
	c30.7,24.4,68.9,37.6,108.1,37.6c96.3,0,174.3-78,174.3-174.3S920.6,325.7,824.3,325.7z M255.4,608.3c-22.2,16.2-50,26.1-79.6,26.1
	c-74.3,0-134.4-60.1-134.4-134.4s60.1-134.4,134.4-134.4c29.6,0,57.3,9.9,79.6,26.1c-24.5,30.7-37.8,69-37.7,108.3
	C217.7,539.3,231,577.5,255.4,608.3z M283.9,579.9c-17.1-23.1-26.4-51.1-26.3-79.9c-0.1-28.8,9.1-56.7,26.3-79.9
	c17.1,23.1,26.4,51.1,26.3,79.9C310.2,528.8,301,556.7,283.9,579.9z M471.5,608.3c-23.1,17-51,26.1-79.7,26
	c-28.6,0-56.5-9.1-79.5-26c24.4-30.8,37.7-69,37.7-108.3c0.1-39.3-13.2-77.5-37.7-108.3c23-17,50.9-26.1,79.5-26
	c29.8,0,57.4,9.6,79.7,26c-24.5,30.7-37.8,69-37.7,108.3C433.8,539.3,447.1,577.5,471.5,608.3z M500,579.9
	c-17.1-23.1-26.4-51.1-26.3-79.9c-0.1-28.8,9.1-56.7,26.3-79.9c17.1,23.1,26.4,51.1,26.3,79.9C526.4,528.8,517.2,556.7,500,579.9z
	 M687.7,608.3c-22.3,16.4-49.8,26-79.7,26s-57.2-9.6-79.5-26c24.4-30.8,37.7-69,37.7-108.3c0.1-39.3-13.2-77.5-37.7-108.3
	c22.3-16.4,49.6-26,79.5-26c29.8,0,57.3,9.6,79.7,26c-24.5,30.8-37.8,69-37.7,108.3C650,539.3,663.3,577.5,687.7,608.3z
	 M716.2,579.9c-17.1-23.1-26.4-51.1-26.3-79.9c-0.1-28.8,9.1-56.7,26.3-79.9c17.1,23.1,26.4,51.1,26.3,79.9
	C742.6,528.8,733.4,556.7,716.2,579.9z M824.3,634.4c-29.6,0-57.3-9.9-79.6-26.1c24.4-30.8,37.7-69,37.7-108.3
	c0.1-39.3-13.2-77.5-37.7-108.3c22.2-16.2,50-26.1,79.6-26.1c74.2,0,134.4,60.1,134.4,134.4C958.7,574.2,898.6,634.4,824.3,634.4z"></path>
</svg>