<svg version="1.1" id="Layer_1" xmlns="http://www.w3.org/2000/svg" xmlns:xlink="http://www.w3.org/1999/xlink" x="0px" y="0px" viewBox="0 0 1000 1000" enable-background="new 0 0 1000 1000" xml:space="preserve">
<g>
	<path d="M512,648.4c5.6,10.6,21.9,7.6,24.2-3.1c6.7,9.8,22.2,5.2,23.7-5.1c6.5,7.1,19.4,4.3,22.3-4.9c0-0.1,0,0.1,0,0
		c47.8-19.7,82.7-55.4,96.4-98c2.9-1.2,5.4-3.2,7.4-5.7c14.8,3.5,31.3,10.5,37.4-6.1c13,3.5,40.4,12.6,48.7-9.6
		c19.1,2.6,46.9,4.4,50.4-15.7c16.5,0,45.2-2.6,45.2-21.8c16.5,0,45.2-11.3,41.7-24.4c14.8-1.7,34.8-17.4,34.8-27.9
		c14.8-4.4,31.3-15.7,27.8-30.5c8.7-5.2,23.5-11.3,23.5-20.1s-7-15.7-14.8-15.7s-37.4,1.8-47.8,1.8c-10.4,0-136.4-1.7-166,0
		c-29.5,1.7-66.9,2.6-85.2,0.8c-13.4-1.3-59.2-3.9-86.7,3.4c-58.2-29-131.5-29-189.8,0c-27.5-7.4-73.3-4.7-86.8-3.5
		c-18.3,1.7-55.6,0.9-85.2-0.8c-29.5-1.7-155.6,0-166,0s-40-1.8-47.8-1.8s-14.8,7-14.8,15.7s14.8,14.8,23.5,20.1
		c-3.5,14.8,13,26.2,27.8,30.5c0,10.5,20,26.2,34.8,27.9c-3.5,13.1,25.2,24.4,41.7,24.4c0,19.2,28.7,21.8,45.2,21.8
		c3.5,20.1,31.3,18.3,50.4,15.7c8.3,22.2,35.6,13.1,48.7,9.6c6.1,16.6,22.6,9.6,37.4,6.1c2,2.6,4.6,4.5,7.4,5.7
		c13.7,42.6,48.7,78.3,96.4,98c0,0.1,0-0.1,0,0c2.9,9.2,15.8,12,22.3,4.9c1.5,10.3,17,14.9,23.7,5.1c2.3,10.7,18.6,13.7,24.2,3.1
		C489.4,658.3,510.6,658.3,512,648.4z"></path>
	<path fill="#FFFFFF" d="M349.7,535.1c5.1,11.7,21.3,9.3,30.9,5.6c12.9,19.7,34.4,35.7,60.8,45.4l-21,35.7
		c-40.8-17.8-71-47.7-84.3-82.9C340.8,538.5,345.4,537.2,349.7,535.1z"></path>
	<path fill="#FFFFFF" d="M417.4,631.2c-45-19.1-78.1-52.5-91.9-92.5c2.3,0.5,4.6,0.7,7,0.6c13.4,36.4,44.4,67.4,86.4,85.8
		C418,627,417.5,629.1,417.4,631.2z M440.9,632.3L440.9,632.3c-6.7,16.6-26.5,7-17.5-8.6l21.3-36.3c3.9,1.3,7.9,2.5,12,3.6
		C456.8,591.5,441.2,631.5,440.9,632.3z M463.5,637.4c-4.1,16.5-23.9,11.5-19.3-4l17-41.4c4,0.9,8.1,1.7,12.3,2.3
		C473.5,594.5,463.5,637.4,463.5,637.4z M486.7,640c-1.5,17.8-23.2,14.7-19.3-3c0,0,9.7-42,9.7-42.1c4.1,0.5,8.2,0.9,12.4,1.2
		C489.7,596.4,486.8,639.6,486.7,640z M490.5,639.7c0,0,2.3-43,2.3-43.1c4.1,0.2,10.1,0.3,14.2-0.1c0.2,0.4,2.9,42.8,2.9,43.1
		C511.4,657,489.5,657.3,490.5,639.7z M18.9,370.2c1.9-1.5,6.1-1.4,11.4-1.7c26.9,0,89.5,1.7,101.7,1.7s98.2,9.6,111.7,14
		c6.1,1.7,7.4,7.8,0,8.3c-7.4,0.4-99.2,1.8-112.3,1.8c-10.1,0-62.7-0.2-93.1-6.2C21.9,384.8,13.1,374.7,18.9,370.2z M48.5,402.5
		c15.6,0.4,93.9,0.9,103,0.4c9.1-0.4,80-4.4,88.2-4.8c17.9-0.9,23.6,7,4.8,11.3c-9.6,2.2-97.8,12.2-164.7,10.9
		c-12.6,0.4-29.5-6.1-33.9-12.2C41.6,402.1,46.4,402.5,48.5,402.5z M78.9,431.3c10.9,0,139-9.6,166-15.3c23.4-3.6,18.1,8.5,8.7,10.5
		c-8,1.6-103,20.1-151.2,20.9C86.3,447,67.6,431.8,78.9,431.3z M111.5,458.4c15.2-1.7,116.5-17.9,143.8-25.3
		c24.8-6.4,19.8,10.1,10.9,12.7c-7.9,2.3-94.2,23.4-113.8,24.4c-8.3,0.4-16.7-0.1-24.9-1.7C99.8,462.9,111.5,458.4,111.5,458.4z
		 M152.4,481.1c10.9-2.2,99.1-22.2,124.3-31.8c12.3-4.3,16,7.8,8.3,11.3c-4.8,2.2-72.6,30.5-104.7,32.3
		C168.5,492.8,146.8,486.5,152.4,481.1z M296.2,462.7c-10,4.8-70.8,30.5-94.3,35.8c-3.3,0.9-6.7,2.3-6.4,4.1
		c2.1,13.9,45.3,2.1,48.3,1.1c16.6-5.3,50.5-17.8,64.8-31.9C305.1,470.1,297.1,464.5,296.2,462.7z M314.5,477.6
		c-6.5,4.4-49.1,26.6-68.7,32.7c-10.2,3.4,0.5,14,20.5,8.3c22.1-3.4,54.2-29.6,59.5-34.4C323.2,482.8,317.5,479.3,314.5,477.6z
		 M334.5,489.3c-7.9,5.4-23,15.5-32.7,22c-4,2.7-13.4,7.9-13.2,12.1c0.1,2,3.9,5.8,21.3-0.5c10.8-4.4,23.9-13.5,35-29.6
		C342.7,492.6,337.1,490.7,334.5,489.3z M354,495.9c-4.1,4.1-9.3,9.7-14.5,14.8c-4.7,6.1-15.3,10.6-11.7,17.7
		c3.9,7.7,16.3-3.4,20.8-7.6c6.3-6,12.4-13.9,14.7-21.8C360.3,498.1,356.8,497.2,354,495.9z"></path>
	<path fill="#FFFFFF" d="M202.8,366.8c11.3,0,49.5,2.6,63.4,2.6c40,0,94-7.1,131.2,0.6c23.1,4.8,26.4,11.5,26.4,18.7
		c0,9.4-7.8,15-13.4,19.1c-6.5,4.8-26.5,16.6-27.4,47.1c-5.2-2.2-12.6-3.5-7.4-14.4c9.1-18.3,29.6-40.5-5.4-50
		c-5.5-1.5-12.3-2.5-20.6-2.8c-25.6-0.9-62.8-1.1-75.4-3.2c-12.6-2.2-60.2-13.3-70.2-14.6C199.7,369.4,199.7,367.2,202.8,366.8z"></path>
	<path fill="#FFFFFF" d="M303.2,393.3c9.1,0,37.1-0.2,46.4,0.3c25.9,1.2,44.4,13.9,25.7,37.7c-3.7,4.6-13.5,14.4-17.4,17.9
		c-3.5,2.6-10-1.7-4.4-8.3c-7.4,4.4-16.5,3.5-12.2-6.5c-6.5,5.2-17.4,5.7-10.9-7.8c-4.3,3.5-16.5,3.1-8.7-7.4
		c-6.5,2.2-13.9-1.7-9.1-8.3c-8.3,1.3-13-4.8-4.3-9.6C300.2,403.3,298,393.7,303.2,393.3z M277.7,388.7c-3.5-0.2-18.8-2.7-18.4,5.5
		c0.4,8.3,17.3,5.1,20.8,4.5c6.4-1.2,11.5-3.2,11.4-5.8C291.4,390.1,284.7,389.1,277.7,388.7z M278.4,402.8c-3.7,0.3-17-0.4-15,7.2
		c0.7,2.4,5.6,7.2,21.9,3.2c7.2-1.8,10.9-5.6,10.9-8.7C296.3,401.8,286.6,402.2,278.4,402.8z M288.9,415.1
		c-2.6,0.4-17.9,1.5-15.4,9.2c1.8,5.4,4.5,3.7,9.2,4.2c3.1,0.4,25.8-6.1,22.3-13.4C304,413,297.3,413.7,288.9,415.1z M296.5,426.1
		c-15.2,6.2-15,10.4-14.3,12.6c0.7,2.3,7.6,5.1,22-2c7.3-3.6,7.4-7.6,5.6-10.5C307.5,422.6,301.9,423.8,296.5,426.1z M307.1,436.4
		c-15.8,5.5-14.9,10.6-13.6,13.5c1.4,3.3,6.4,6.8,19.5-1.7c8-5.1,13.1-9.3,11.7-12.7C323.4,432.5,315.9,433.3,307.1,436.4z
		 M313.2,452.3c-4.1,2.5-6,5.9-3.4,9.8c4.7,7,18.4-5.3,21.9-9.1c2.6-2.8,4.2-5.7,2.8-7.9C333,443,328.3,443.1,313.2,452.3z
		 M338.2,453.5c-18.4,9.4-16.6,14-14,15.9c2.8,2.2,9.5,4.4,20.6-8.5C349.6,455.2,346.9,449,338.2,453.5z M347.3,463.4
		c-3.9,4.4-13,10.9-5.9,15.8c5.9,4.1,9.4-0.4,12.3-3.2C370.6,459.7,365,449.3,347.3,463.4z"></path>
	<path d="M402.8,377.9c12.9,6.5,18.2,13.4,5,22.8c-1.6,1.1,0.4,4,2,2.9c14.6-10.3,11.4-21.1-5.4-28.7
		C402.5,373.9,401,377,402.8,377.9z"></path>
	<path fill="#FFFFFF" d="M579.8,525.6c0-13.9-14.3-27.8-30.1-32.6c-4.2-1-3.6-4.7-0.3-6.2c3.2-1.4,21.7-14.4,21.4-30.7
		c0-15.8-18.5-39.8-72.4-39.8c-31.7,0-58.2,7.2-74,20.6c3.7,2.9,7.9,7.2,7.9,12v87.8c-0.5,5.3-3.2,9.6-7.4,14.4
		c14.2,10.1,39.7,19.8,76.4,19.7C540.4,569.8,579.8,558.2,579.8,525.6z"></path>
	<path d="M501.1,483.3c16.8,0,30.5-10.9,30.5-24.4s-13.6-24.4-30.5-24.4c-16.8,0-30.5,10.9-30.5,24.4
		C470.6,472.4,484.3,483.3,501.1,483.3z"></path>
	<path d="M505,550.9c18.9,0,34.2-11.5,34.2-25.8s-15.3-25.8-34.2-25.8s-34.2,11.5-34.2,25.8S486.2,550.9,505,550.9z"></path>
	<path fill="#FFFFFF" d="M368.7,483c1.2-6,3.1-11.7,5.7-17.3c-0.1-0.2-4.7-6-15.8,10.1C352.4,484.7,363.3,488.3,368.7,483z
		 M368.4,510.4c-4.6,5.3-8.9,9.8-11.8,13.4c-6,7.5,9.6,16.7,17.9,6.1C371.6,523.7,369.6,517.1,368.4,510.4z M582.2,370.8
		c2.5-1.4,5-2.6,7.7-3.5c-55.6-26.3-124.3-26.3-179.9,0c2.9,1,5.5,2.2,7.7,3.5C469.3,348.3,531.2,348.5,582.2,370.8z"></path>
	<path fill="#FFFFFF" d="M607.8,440.1c-6.2-21.8-21.8-30.7-27.9-34.9c-12.2-8.5-11.5-21.1-1.1-32c-49.7-21-108.6-20.8-157.7,0
		c10.4,10.9,11,23.5-1.1,32c-6,4.2-21.7,13.1-27.9,34.9C445.2,385.2,554.8,385.2,607.8,440.1z M650.4,535.1
		c-5.1,11.7-21.3,9.3-30.9,5.6c-12.9,19.7-34.4,35.7-60.8,45.4l21,35.7c40.8-17.8,71-47.7,84.3-82.9
		C659.2,538.5,654.6,537.2,650.4,535.1z"></path>
	<path fill="#FFFFFF" d="M582.7,631.2c45-19.1,78.2-52.5,91.9-92.5c-2.3,0.5-4.6,0.7-7,0.6c-13.4,36.4-44.4,67.4-86.4,85.8
		C582,627,582.5,629.1,582.7,631.2z M559.1,632.3L559.1,632.3c6.7,16.6,26.5,7,17.5-8.6l-21.3-36.3c-3.9,1.3-7.9,2.5-12,3.6
		C543.2,591.5,558.9,631.5,559.1,632.3z M536.5,637.4c4.1,16.5,23.9,11.5,19.3-4c0,0-16.1-39.2-17-41.4c-4,0.9-8.1,1.7-12.3,2.3
		C526.5,594.5,536.5,637.4,536.5,637.4z M513.3,640c1.5,17.8,23.2,14.7,19.3-3c0,0-9.7-42-9.7-42.1c-4.1,0.5-8.2,0.9-12.4,1.2
		C510.3,596.4,513.3,639.6,513.3,640z M981.1,370.2c-1.9-1.5-6.1-1.4-11.4-1.7c-26.9,0-89.5,1.7-101.7,1.7s-98.2,9.6-111.7,14
		c-6.1,1.7-7.4,7.8,0,8.3c7.4,0.4,99.2,1.8,112.3,1.8c10.1,0,62.7-0.2,93.1-6.2C978.1,384.8,986.9,374.7,981.1,370.2z M951.5,402.5
		c-15.6,0.4-93.8,0.9-103,0.4c-9.1-0.4-80-4.4-88.2-4.8c-17.9-0.9-23.6,7-4.8,11.3c9.6,2.2,97.8,12.2,164.7,10.9
		c12.6,0.4,29.5-6.1,33.9-12.2C958.4,402.1,953.7,402.5,951.5,402.5z M921.1,431.3c-10.9,0-139-9.6-166-15.3
		c-23.4-3.6-18.1,8.5-8.7,10.5c8,1.6,103,20.1,151.2,20.9C913.7,447,932.4,431.8,921.1,431.3z M888.5,458.4
		c-15.2-1.7-116.5-17.9-143.8-25.3c-24.8-6.4-19.8,10.1-10.9,12.7c7.9,2.3,94.2,23.4,113.8,24.4c8.3,0.4,16.7-0.1,24.9-1.7
		C900.2,462.9,888.5,458.4,888.5,458.4z M847.6,481.1c-10.9-2.2-99.1-22.2-124.3-31.8c-12.3-4.3-16,7.8-8.3,11.3
		c4.8,2.2,72.6,30.5,104.7,32.3C831.5,492.8,853.2,486.5,847.6,481.1z M703.8,462.7c10,4.8,70.8,30.5,94.3,35.8
		c3.3,0.9,6.7,2.3,6.4,4.1c-2.1,13.9-45.3,2.1-48.3,1.1c-16.6-5.3-50.5-17.8-64.8-31.9C694.9,470.1,702.9,464.5,703.8,462.7z
		 M685.5,477.6c6.5,4.4,49.1,26.6,68.7,32.7c10.2,3.4-0.5,14-20.5,8.3c-22.1-3.4-54.2-29.6-59.5-34.4
		C676.9,482.8,682.5,479.3,685.5,477.6z M665.6,489.3c7.9,5.4,23,15.5,32.7,22c4,2.7,13.4,7.9,13.2,12.1c-0.1,2-3.9,5.8-21.3-0.5
		c-10.8-4.4-23.9-13.5-35-29.6C657.3,492.6,662.9,490.7,665.6,489.3z M646,495.9c4.1,4.1,9.3,9.7,14.5,14.8
		c4.8,6.1,15.3,10.6,11.7,17.7c-3.9,7.7-16.3-3.4-20.8-7.6c-6.3-6-12.4-13.9-14.7-21.8C639.7,498.1,643.2,497.2,646,495.9z"></path>
	<path fill="#FFFFFF" d="M797.2,366.8c-11.3,0-49.5,2.6-63.4,2.6c-40,0-94-7.1-131.2,0.6c-23.1,4.8-26.4,11.5-26.4,18.7
		c0,9.4,7.8,15,13.4,19.1c6.5,4.8,26.5,16.6,27.4,47.1c5.2-2.2,12.6-3.5,7.4-14.4c-9.1-18.3-29.6-40.5,5.4-50
		c5.5-1.5,12.3-2.5,20.6-2.8c25.6-0.9,62.8-1.1,75.4-3.2c12.6-2.2,60.2-13.3,70.2-14.6C800.3,369.4,800.3,367.2,797.2,366.8z"></path>
	<path fill="#FFFFFF" d="M696.8,393.3c-9.1,0-37.1-0.2-46.4,0.3c-25.9,1.2-44.4,13.9-25.7,37.7c3.7,4.6,13.5,14.4,17.4,17.9
		c3.5,2.6,10-1.7,4.3-8.3c7.4,4.4,16.5,3.5,12.2-6.5c6.5,5.2,17.4,5.7,10.9-7.8c4.3,3.5,16.5,3.1,8.7-7.4c6.5,2.2,13.9-1.7,9.1-8.3
		c8.3,1.3,13-4.8,4.3-9.6C699.8,403.3,702,393.7,696.8,393.3z M722.3,388.7c3.5-0.2,18.8-2.7,18.4,5.5c-0.4,8.3-17.3,5.1-20.8,4.5
		c-6.4-1.2-11.5-3.2-11.4-5.8C708.6,390.1,715.3,389.1,722.3,388.7z M721.6,402.8c3.7,0.3,17-0.4,15,7.2c-0.7,2.4-5.5,7.2-21.9,3.2
		c-7.2-1.8-10.9-5.6-10.9-8.7C703.8,401.8,713.4,402.2,721.6,402.8z M711.1,415.1c2.6,0.4,17.9,1.5,15.4,9.2
		c-1.8,5.4-4.5,3.7-9.2,4.2c-3.1,0.4-25.8-6.1-22.3-13.4C696,413,702.7,413.7,711.1,415.1z M703.6,426.1c15.1,6.2,15,10.4,14.3,12.6
		c-0.7,2.3-7.6,5.1-22-2c-7.3-3.6-7.4-7.6-5.6-10.5C692.5,422.6,698.1,423.8,703.6,426.1z M692.9,436.4
		c15.8,5.5,14.9,10.6,13.6,13.5c-1.4,3.3-6.4,6.8-19.5-1.7c-8-5.1-13.1-9.3-11.7-12.7C676.6,432.5,684.1,433.3,692.9,436.4z
		 M686.8,452.3c4.1,2.5,6,5.9,3.4,9.8c-4.7,7-18.4-5.3-21.9-9.1c-2.6-2.8-4.2-5.7-2.8-7.9C667,443,671.7,443.1,686.8,452.3z
		 M661.9,453.5c18.4,9.4,16.6,14,14,15.9c-2.8,2.2-9.5,4.4-20.6-8.5C650.4,455.2,653.1,449,661.9,453.5z M652.7,463.4
		c3.9,4.4,13,10.9,5.9,15.8c-5.9,4.1-9.4-0.4-12.3-3.2C629.4,459.7,635,449.3,652.7,463.4z"></path>
	<path d="M597.2,377.9c-12.9,6.5-18.2,13.4-5,22.8c1.6,1.1-0.4,4-2,2.9c-14.6-10.3-11.4-21.1,5.4-28.7
		C597.5,373.9,599,377,597.2,377.9z"></path>
	<path fill="#FFFFFF" d="M631.3,483c-1.2-6-3.1-11.7-5.7-17.3c0.1-0.2,4.7-6,15.8,10.1C647.6,484.7,636.7,488.3,631.3,483z
		 M631.6,510.4c4.6,5.3,8.9,9.8,11.8,13.4c6,7.5-9.6,16.7-17.9,6.1C628.4,523.6,630.5,517.1,631.6,510.4z"></path>
</g>
</svg>