<svg class="block h-5 w-5" width="23" height="23" viewBox="0 0 23 23" fill="none" xmlns="http://www.w3.org/2000/svg">
  <path d="M15.5179 0H7.05361C3.15861 0 0 3.15859 0 7.05357V15.5178C0 19.4128 3.15861 22.5714 7.05361 22.5714H15.5179C19.4129 22.5714 22.5715 19.4128 22.5715 15.5178V7.05357C22.5715 3.15859 19.4129 0 15.5179 0ZM20.4555 15.5178C20.4555 18.2405 18.2406 20.4553 15.5179 20.4553H7.05361C4.33091 20.4553 2.11608 18.2405 2.11608 15.5178V7.05357C2.11608 4.33089 4.33091 2.11607 7.05361 2.11607H15.5179C18.2406 2.11607 20.4555 4.33089 20.4555 7.05357V15.5178Z" fill="#ffffff"></path>
  <path d="M11.2854 5.64307C8.16917 5.64307 5.64258 8.16966 5.64258 11.2859C5.64258 14.4022 8.16917 16.9288 11.2854 16.9288C14.4017 16.9288 16.9283 14.4022 16.9283 11.2859C16.9283 8.16966 14.4017 5.64307 11.2854 5.64307ZM11.2854 14.8127C9.34147 14.8127 7.75865 13.2299 7.75865 11.2859C7.75865 9.34055 9.34147 7.75914 11.2854 7.75914C13.2294 7.75914 14.8122 9.34055 14.8122 11.2859C14.8122 13.2299 13.2294 14.8127 11.2854 14.8127Z" fill="#ffffff"></path>
  <path d="M17.3518 5.97159C17.767 5.97159 18.1037 5.63495 18.1037 5.21968C18.1037 4.80441 17.767 4.46777 17.3518 4.46777C16.9365 4.46777 16.5999 4.80441 16.5999 5.21968C16.5999 5.63495 16.9365 5.97159 17.3518 5.97159Z" fill="#ffffff"></path>
</svg>