<svg class="block h-12 w-32 xl:h-16 xl:w-64" width="250" height="22" viewBox="0 0 250 22" fill="none" xmlns="http://www.w3.org/2000/svg">
<path d="M4.74684 21.6663H0V0.154053H39.4896V4.86722H4.74684V8.53676H39.4896V13.2499H4.74684V21.6663Z" fill="#ffffff"></path>
<path d="M53.7974 16.9531H88.5402V21.6663H49.0505V0.154053H88.5402V4.86722H53.7974V8.53676H88.5402V13.2499H53.7974V16.9531Z" fill="#ffffff"></path>
<path d="M133.113 0.154053C133.686 0.154053 134.224 0.255049 134.763 0.490708C135.302 0.726366 135.807 1.02936 136.211 1.43334C136.615 1.83733 136.951 2.34231 137.221 2.91462C137.456 3.5206 137.591 4.16025 137.591 4.86722V8.53676C137.591 9.81605 137.288 10.826 136.648 11.6003C136.009 12.3746 135.234 12.8796 134.258 13.1153L137.625 21.6663H132.777L129.006 13.2499H102.814V21.6663H98.0676V0.154053H133.113ZM102.814 4.83356V8.5031H131.127C131.565 8.5031 131.969 8.4021 132.305 8.20011C132.642 7.99811 132.81 7.62779 132.81 7.02181V6.51683C132.81 5.91085 132.642 5.43954 132.339 5.17021C132.036 4.90089 131.598 4.76623 131.06 4.76623H102.814V4.83356Z" fill="#ffffff"></path>
<path d="M186.641 21.6663H181.895V13.2499H151.899V21.6663H147.152V4.83356C147.152 4.09292 147.287 3.41961 147.522 2.84729C147.758 2.24131 148.094 1.77 148.532 1.36601C148.936 0.962025 149.407 0.659035 149.946 0.457042C150.485 0.255049 151.023 0.154053 151.629 0.154053H182.164C182.736 0.154053 183.275 0.255049 183.814 0.490708C184.352 0.726366 184.857 1.02936 185.261 1.43334C185.665 1.83733 186.002 2.34231 186.271 2.91462C186.507 3.5206 186.641 4.16025 186.641 4.86722V21.6663ZM151.865 6.85349V8.53676H181.861V6.85349C181.861 6.24751 181.726 5.77619 181.423 5.40587C181.154 5.03555 180.75 4.86722 180.211 4.86722H153.481C152.875 4.86722 152.471 5.03555 152.202 5.40587C152 5.77619 151.865 6.24751 151.865 6.85349Z" fill="#ffffff"></path>
<path d="M196.169 4.83356V0.120392H235.659V4.83356H218.254V21.6663H213.507V4.83356H196.169Z" fill="#ffffff"></path>
<path d="M250 21.6663H245.219V0.154053H250V21.6663Z" fill="#ffffff"></path>
</svg>