<svg version="1.1" id="Layer_1" xmlns="http://www.w3.org/2000/svg" xmlns:xlink="http://www.w3.org/1999/xlink" x="0px" y="0px" viewBox="0 0 1000 1000" enable-background="new 0 0 1000 1000" xml:space="preserve">
<g>
	<path fill="#FFFFFF" d="M522,496.3h-44v10.1h44V496.3z"></path>
	<path fill="#FFFFFF" d="M516.6,510.3h-33.3v21h33.3V510.3z"></path>
	<path fill="#FFFFFF" d="M565.5,449.3H434.6v5.1h130.9V449.3z"></path>
	<path fill="#FFFFFF" d="M572.4,458.9H427.5v5.1h144.8v-5.1H572.4z"></path>
	<path fill="#FFFFFF" d="M572.3,439.9h-145v5h144.9v-5H572.3z"></path>
	<path fill="#FFFFFF" d="M522.8,474.8c-7.3,6.2-7.2,17.3-7.2,17.3h-15.5h-15.7c0,0,0.1-11.1-7.2-17.2c-5.1-4.3-11.3-5.3-11.3-5.3
		c-4.1-0.7-4.1-1.2-4.1-1.4h35.3h9.5H538c0,0,0,0.7-4,1.4C534.1,469.6,527.9,470.6,522.8,474.8z"></path>
	<path fill="#FFFFFF" d="M435.2,468.2h15.7c0,8.6-6,12.5-15.7,10.6V468.2z"></path>
	<path fill="#FFFFFF" d="M490.8,328.4c6.3-11.5,7.5-28.8,9.1-29.1c1.5,0.3,2.7,17.6,8.9,29.1c5.9,10.8,18.6,20.1,17.9,21.2
		c-0.9,1.4-7.9-2-11.5-3.6c-5.7-2.5-10.3-4.4-10.3-4.4s-2.3,27.6,5,53c5.9,20.8,20.1,39.8,21.4,41.4h-18.1c-0.6-0.9-1.1-1.7-1.7-2.6
		c-4.9-8-8.4-15.1-11.7-27.1c-3.5,12-7,19-11.9,27.1c-0.5,0.8-1.1,1.8-1.6,2.6h-18.1c1.3-1.6,15.4-20.6,21.3-41.4
		c7.2-25.4,5-53,5-53s-4.6,1.9-10.2,4.4c-3.6,1.5-10.6,4.9-11.5,3.6C472.2,348.6,485,339.3,490.8,328.4z"></path>
	<path fill="#FFFFFF" d="M434.5,436.1c-0.1-2.1-1.2-30-8.2-51.9c-7.7-24.1-23.2-38.3-22.2-39.8c0.9-1.4,13.8,1.1,23.4,7.2
		c10.3,6.6,20.3,17.4,19.6,18.3c-0.5,0.5-3.9-2.2-10.2-4.4c-6.6-2.3-9.5-1.9-9.5-1.9s11,17,16.5,35.4c4.6,15.4,6.9,35.3,7.1,37.1
		L434.5,436.1L434.5,436.1z"></path>
	<path fill="#FFFFFF" d="M565.5,436.1c0-2.1,1.2-30,8.2-51.9c7.7-24.1,23.2-38.3,22.2-39.8c-1-1.4-13.8,1.1-23.4,7.2
		c-10.3,6.6-20.3,17.4-19.6,18.3c0.5,0.5,3.9-2.2,10.1-4.4c6.6-2.3,9.5-1.9,9.5-1.9s-11,17-16.5,35.4c-4.6,15.4-7,35.3-7.1,37.1
		L565.5,436.1L565.5,436.1z"></path>
	<path fill="#FFFFFF" d="M564.9,468.2h-15.7c0,8.6,6.1,12.5,15.7,10.6V468.2z"></path>
	<path fill="#FFFFFF" d="M235.1,618.3l12.8,33h-26.6L235.1,618.3z M604.3,609c10,0,23.8,5,23.8,22.1c0,10.8-4.5,16.2-9.5,18.7
		c-4.5,2.2-9.1,2.6-14,2.6h-9.7v-43.1C597,609.5,600.6,609,604.3,609z M732.3,618.3l12.8,33h-26.6L732.3,618.3z M38.1,618.7
		l36.1,78.8H79l37.1-78.8l3.8,59.6c0.2,1.4,0.7,5.6,0.7,6.9c0,3.4-1.8,5-4.5,5.9c-3.2,1.3-8.3,1.4-11.9,1.6v4.8h48.6v-4.8
		c-15,0.6-15.3-3.4-16.1-15.4l-3.9-54.1c-0.4-7.1-0.2-10.3,1.5-11.9c0.9-0.8,2.2-1.2,4-1.5c2.2-0.2,4.7-0.2,8.7-0.2v-4.7h-33.1
		L81.6,674l-32-69.1H16v4.7c13,0.8,14.6,0.8,14,9.7l-4.8,55.9c-1.3,16-1.5,16.8-18.5,17.6v4.8h39.5v-4.8c-5.3,0-14-0.2-14-5.9
		c0-2.4,0.2-5.3,0.5-6.3L38.1,618.7z M245.5,697.6h48.8v-4.8c-6.6-0.2-9.3-0.8-11.5-2.6c-2.3-2-4-6.9-5.1-9.5l-31.4-78.8h-17.6
		l2.6,6.5l-28.7,67c-1.3,2.9-2.4,5.5-3.2,7.5c-3.4,6.7-6.6,8.5-14.9,10v4.6h40.4v-4.8c-2.6-0.2-4.7-0.4-6.4-0.6
		c-4.5-0.8-9.3-1.7-9.3-6.9c0-5.1,2.5-11.4,4-15.2l5.1-12.1h32.5l6.8,17.6c1.5,3.9,3.2,8.5,3.2,11.4c0,5.1-6.8,5.5-15.3,5.8
		L245.5,697.6L245.5,697.6z M362,700.7c19.1,0,31.2-12.5,31.2-26.7c0-7.9-3.4-13.8-7.9-18.5c-3.6-3.8-7.9-6.5-12.6-9.3
		c-5.7-3.6-10.6-6.5-14.4-8.9c-3.8-2.3-6.8-4.5-8.9-6.3c-4.3-3.6-5.5-6.3-5.5-10.7c0-6.7,6.4-12.9,15.1-12.9
		c11.2,0,19.1,7.3,24,19.2h5.3l-2.4-22.1H381c-1.3,1.6-2.1,2-2.8,2c-0.9,0-5.5-2-6.8-2.4c-4.2-1.4-9.3-2.2-14.6-2.2
		c-13.9,0-27.4,10.1-27.4,23.9c0,8.3,3.8,16.8,24.2,28.5c16.3,9.3,25.2,14.4,25.2,25.2c0,12.1-12.3,15.8-18.6,15.8
		c-4.7,0-18.7-2.3-25.5-20.5h-5.5l3,23.9h4.7c0.2-1.4,0.6-2,2.5-2c0.9,0,1.7,0,2.8,0.4c5.9,1.6,9.3,2.4,12.1,2.9
		C357.1,700.5,359.1,700.7,362,700.7z M518.9,697.6l2.4-23.3H516c-4.5,16-9.5,17.6-19.6,17.6H479c-9.3,0-9.8,0-9.8-8.7v-29.8h22.5
		c11.3,0,12.8,0.6,13.4,12.2h5.3v-29.4H505c-1.3,11.5-3.6,11.5-11.7,11.5h-24.2V611h24.4c10.9,0,14.2,1,17,15.2h5.1l-1-21.1h-79.2
		v4.7c13.2-0.2,16.1,1.4,16.1,11.8v59.6c0,8.5-1.1,12.2-16.1,11.7v4.8h83.5V697.6z M622.7,681c9.5,13.6,21.2,18.8,35.9,18.1v-4.7
		c-8.5-1.6-12.6-4.3-20.2-18.7c-4-8.1-6.5-12.4-8.4-15.2c-1.5-2-3.2-3.6-5.1-5.3c1.7-0.6,3.8-1.2,5.9-2.2
		c10-4.3,15.5-11.2,15.5-22.1c0-27.1-36.9-27.1-44.8-27.1c-17.4,0-30.8,1.4-40.8,2.3v4.7c14.9,0.6,16.4,0.8,16.4,10.3v60
		c0,8.5-1.3,12.2-16.4,11.7v4.8h51.8v-4.8h-7.2c-9.3,0-10.5-2.4-10.5-14.4V658h13.8C611,661.6,620.1,677.4,622.7,681z M742.4,697.6
		h48.8v-4.8c-6.4-0.2-9.3-0.8-11.2-2.6c-2.4-2-4.1-6.9-5.1-9.5l-31.6-78.8h-17.6l2.6,6.5l-28.4,67c-1.3,2.9-2.4,5.5-3.4,7.5
		c-3.5,6.7-6.6,8.5-14.9,10v4.6h40.5v-4.8c-2.5-0.2-4.6-0.4-6.6-0.6c-4.2-0.8-9.3-1.7-9.3-6.9c0-5.1,2.6-11.4,4.3-15.2l5.1-12.1H748
		l6.5,17.6c1.7,3.9,3.2,8.5,3.2,11.4c0,5.1-6.6,5.5-15.3,5.8V697.6L742.4,697.6z M898.5,626.4h5.3l-2.5-24.5h-4.1
		c-1.1,2.4-1.7,2.9-9.1,2.9h-63.5h-4.2c-2.8-0.2-4.3-0.4-5.7-2.9h-4.1l-2.1,24.5h4.8c1.9-5.3,2.8-8.3,3.6-10.2c0.8-2,1.8-3,3-3.7
		c1.7-1.3,4.5-1.6,10.9-1.6h16.5V681c0,5.7-0.6,8.3-2.8,9.7c-1.3,0.7-3,1.2-5.5,1.5c-2.6,0.2-5.7,0.4-10.7,0.6v4.8h55v-4.8
		c-4.5-0.2-7.6-0.4-10.2-0.6c-2.5-0.4-4.2-0.8-5.5-1.5c-2.3-1.6-3-4.4-3-10.7v-69.2h18.5C891.7,610.8,894.9,611.1,898.5,626.4z
		 M942,697.6h51.3v-4.8c-14.4-0.8-17.6-2.4-17.6-13.8v-51.1c0-15.4,0.3-17.6,17-18.2V605h-51.4v4.7c14.5,1,17,2.6,17,13.8v46.6
		c0,4.5-0.2,16-2.6,19.5c-1.3,2.2-1.7,2.4-13.8,3.2L942,697.6L942,697.6z"></path>
</g>
</svg>