<svg version="1.1" id="Layer_1" xmlns="http://www.w3.org/2000/svg" xmlns:xlink="http://www.w3.org/1999/xlink" x="0px" y="0px" viewBox="0 0 1000 1000" enable-background="new 0 0 1000 1000" xml:space="preserve">
<g>
	<path fill="#FFFFFF" d="M18.9,371.2c-0.3,0.5-0.7,23.8-0.5,51.6c0,46.6,0.2,50.8,1.9,52.1c1.4,1,5.8,1.3,15.6,1.1l13.6-0.3
		l0.3-16.1c0.1-9.7,0.8-16.8,1.5-17.6c0.9-1.1,7.6-1.4,31-1.4c29.6,0,29.8,0,32.2,2.5c3.3,3.4,15.7,17.3,21.5,24
		c8,9.4,7.3,9.2,25.4,9.2c13,0,16-0.3,16-1.5c0-0.9-5.4-8.2-12-16.5s-11.9-15.7-11.8-16.3c0.2-0.8,3.3-3.7,6.9-6.6
		c3.6-2.8,7-6.2,7.6-7.5c0.7-1.2,1.6-2.9,2.3-3.7c0.7-0.9,2.1-4.3,3-7.8c1.9-6.1,1.9-6.6,0-14.1c-3.6-14.3-10-23.5-18.8-27.1
		c-13.2-5.2-11.4-5.1-75-5.1C42.2,370.1,19.3,370.6,18.9,371.2z M138.6,399.5c3.8,4.4,3.7,9-0.3,13l-3.3,3.1l-41.7-0.2L51.5,415
		l-0.3-9.5l-0.3-9.4h84.8L138.6,399.5z M278.3,372.6c-1.3,1.4-6.5,8.5-11.7,15.9c-13.1,18.7-18.2,26.1-26.6,37.9
		c-5.7,8-22.3,31.6-31.6,44.9c-0.8,1-0.5,2.1,0.4,3.1c1.2,1.5,3.8,1.7,18.4,1.5l17-0.3l7.1-10.6l7.1-10.5l40.3,0.2L339,455l5.1,7
		c2.8,3.9,6.5,8.7,8.3,10.5l3.2,3.6h16c12.9,0,15.9-0.3,15.9-1.5c0-0.9-3-5.7-6.8-10.8c-8.6-11.8-18.1-25.1-28-39.1
		c-4.2-6-8.3-11.7-9-12.7c-0.8-1.1-3.6-5.1-6.3-9c-2.7-3.9-8.2-11.5-12.2-17c-4.1-5.4-7.4-10.2-7.4-10.6c0-0.3-1-1.7-2.2-3
		c-2.2-2.3-3.2-2.4-18.6-2.4C281.3,370.1,280.6,370.2,278.3,372.6z M306.6,408.2c3,4.3,7.6,11.1,10.5,15.2c2.7,3.9,4.7,7.5,4.4,7.8
		c-0.9,0.9-43.3,0.9-44.2,0c-0.3-0.3,1.6-3.9,4.4-7.8c2.8-4,7.4-10.8,10.5-15.2c3.3-4.8,6.1-7.8,7.3-7.8S303.3,403.5,306.6,408.2z
		 M416.6,370.9c-0.4,0.3-0.8,23.7-0.8,51.8c0,45.5,0.2,51.3,1.7,52.9c1.4,1.4,4,1.6,15,1.4l13.2-0.3l0.5-36.8
		c0.5-34.3,0.9-39.5,3.2-39.5c0.9,0,5.8,3.7,13.7,10.3c2.4,2.1,6.5,5.4,9.3,7.6c2.7,2.1,8.7,6.8,13.4,10.6
		c4.7,3.7,11.7,9.1,15.4,12.1c13.2,10.4,23,18.3,23.5,18.9c0.3,0.3,5.2,4.3,11,9l10.5,8.3H563c11.7,0,17.3-0.4,18.2-1.3
		c1-1,1.3-13.9,1.3-51.2v-50l-2.5-2.3c-2.3-2.2-3.7-2.4-15.1-2.4c-7,0-13.4,0.3-14.4,0.6c-1.5,0.5-1.7,4.5-1.7,33.6
		c0,28.4-0.2,33-1.6,33.5c-1,0.4-4.7-1.7-9.5-5.6c-4.4-3.6-12.3-10-17.8-14.4c-5.3-4.3-12.2-9.8-15.2-12.2c-2.9-2.4-7.4-6-9.8-7.9
		c-4.8-4.1-10.1-8.3-22.3-17.7c-4.6-3.5-8.8-7.1-9.7-8.1c-1.3-1.5-4.5-1.7-23.5-1.7C427.2,370.1,416.9,370.5,416.6,370.9z
		 M642.9,372.4c-6.6,2.3-11.7,6.9-14.7,13.6c-2.2,4.9-2.3,6.9-2.3,35.9v30.8l3.4,6.7c2.5,5.1,4.6,7.6,9,10.6
		c3.2,2.2,6.5,3.9,7.5,3.9s2.2,0.4,2.5,1.1c0.4,0.6,19.6,1.1,53.8,1.1c59.6,0,56.4,0.4,64.9-8.1c6.9-6.8,8.2-11.8,8.2-31.9
		c0-15.2-0.2-17.2-2-18.8c-1.9-1.6-6.1-1.7-43.3-1.5l-41.3,0.3l-0.3,9.3c-0.2,7.5,0.1,9.7,1.4,11.1c1.5,1.5,5.4,1.7,29,1.7
		c22.5,0,27.3,0.2,27.8,1.5c0.7,1.8-1.1,5.6-4.2,9l-2.2,2.5h-41.2c-36.8,0-41.2-0.2-42.5-1.8c-1.2-1.3-1.5-6.5-1.5-22.4
		c0-20,0.1-20.8,2.5-23.9c5.4-6.9,5.7-6.9,47.2-7c41.5,0,40.1-0.2,41.8,6.8c1.1,4.3,3.5,5.1,15.5,5.1c11.9,0,13.4-0.6,13.4-5.8
		c0-11-10.1-26.6-18.5-28.4c-1.5-0.3-4.5-1.1-6.5-1.6c-2.3-0.6-24-1.2-52.8-1.3C654.5,370.7,647.7,370.9,642.9,372.4z M850.4,371.2
		l-27.8,0.5l-0.3,50.9c-0.2,46.9-0.1,51,1.6,52.2c1.4,1.1,17.1,1.4,69.6,1.4c60.8,0,67.7-0.2,68.4-1.7c1.4-3.7,0.7-18.3-1.1-20.8
		l-1.6-2.4h-51.6c-50,0-51.7-0.1-52.8-2.1c-1.5-2.9-1.4-9.1,0.3-11.3c1.2-1.6,5.6-1.8,46-2.1l44.7-0.3l0.3-10.2
		c0.2-6.5-0.1-10.6-1-11.6c-1-1.3-8.9-1.5-45.6-1.5c-49.2,0-45.7,0.5-45.7-7.1c0-2.2,0.5-4.8,1.1-6c1.1-1.9,2.8-2.1,53.8-2.1
		c47,0,52.8-0.2,53.4-1.7c0.3-1,0.7-5.6,0.7-10.5c0-8-0.3-9.2-2.7-11.9l-2.8-2.9l-39.4,0.2C895.9,370.5,865.7,370.9,850.4,371.2z
		 M18.3,526.2v51.7c-0.1,45.8,0.1,49.4,1.9,50.6c1.4,1,5.8,1.3,15.6,1.1l13.6-0.3l0.5-17.3c0.3-9.5,1-18,1.4-18.7
		c0.7-1,8.1-1.3,30.7-1.3h29.8l10.1,11.6c5.6,6.4,13.3,14.9,17.2,18.9l7.2,7.4h15.9c8.8,0,16.2-0.4,16.6-1s-1.1-3-3.2-5.6
		c-2.1-2.6-7.5-9.5-12-15.3c-4.5-5.7-8.6-10.7-9.3-11.1c-2-1.2-1.2-4.8,1.3-6.1c1.4-0.8,3.2-1.9,3.9-2.7c0.8-0.9,2.3-2.1,3.3-2.8
		c3.8-2.7,7.8-9.3,10-16.1c2.2-6.7,2.3-7.1,0.4-15c-2.8-12.2-7.3-19.6-14.9-24.7c-8.4-5.6-8.9-5.6-76.9-5.6H18.3V526.2z
		 M139.1,551.5c3.3,4.1,2.9,8.7-0.9,12.4l-3.3,3.1l-41.7-0.2l-41.7-0.3l-0.3-9l-0.3-8.9h86L139.1,551.5z M235.5,525.8
		c-5.2,2.2-10.5,6.3-12.5,10.1c-3.8,6.9-4.2,10.1-4.2,38.5c0,31.3,0.9,37.6,6.2,44.6c3.6,4.8,5.1,6,10.8,8.8c4.4,2.2,6,2.2,63.7,1.8
		c63.5-0.3,62.3-0.2,70.4-6c1.9-1.3,4.6-4.2,6-6.5c2.5-4,2.5-4.3,2.5-38.1c0-32-0.1-34.3-2.2-37.9c-2.9-5.2-8.1-10.7-11.9-12.7
		c-8.6-4.4-11-4.7-68.7-4.5C245.8,523.9,239.5,524.1,235.5,525.8z M345.9,551.9c2.3,2.2,2.4,3,2.4,23.2c0,19-0.2,21.2-2.1,23.5
		l-2.1,2.6l-44.2,0.3c-29.8,0.2-45-0.1-46.4-0.9c-2.1-1.1-2.2-2.3-2.2-23.8c0-21.3,0.1-22.8,2.2-24.9c2.1-2.1,3.6-2.2,46.1-2.2
		C342.3,549.8,343.6,549.9,345.9,551.9z M409.3,525.3c0,1.4,3.7,7.1,13.1,20c14.2,19.5,21.7,30.1,26.1,36.5c2.7,3.9,5.4,7.7,6,8.3
		c0.7,0.8,2.6,3.5,4.5,6.2c7.6,11.1,17.3,24.7,20.8,28.9l3.7,4.7h33.2l8.9-12.2c9.5-13.1,13.8-19,28.1-39.2
		c14.1-19.6,23.2-32.4,30.2-41.9c9.3-12.7,9.1-12.8-12.2-12.8c-18.8,0-18.8,0-23.3,7c-1.5,2.4-5.7,8.3-9.1,13.2
		c-3.5,4.9-12.1,17.1-19.1,27.1c-16.6,23.5-20.8,29-22.4,29c-1.3,0-5.1-5.1-23.2-31.4c-5-7.1-11.1-15.9-13.7-19.5
		c-2.5-3.6-7-9.8-9.8-13.9c-8.7-12.3-7.1-11.6-25.6-11.6C412.6,523.8,409.3,524.1,409.3,525.3z M630,526.2
		c-1.1,4.1-0.8,94.7,0.4,97.6c2.3,6.2,1.5,6.1,73.2,5.8l65.7-0.3l0.3-11.9c0.2-10.3,0-12-1.6-13.2c-1.4-1.1-13.3-1.4-52.1-1.4
		c-39.1,0-50.6-0.3-52.2-1.4c-1.4-1.1-1.9-2.6-1.5-7.3l0.3-6l46.3-0.5l46.3-0.5l0.3-9.2c0.4-14.7,4.9-13.5-47.3-13.9
		c-33.4-0.2-44.7-0.6-45.3-1.6c-0.4-0.8-0.9-3.6-0.9-6.4c0-4,0.4-5.4,2.1-6.3c1.4-0.6,20.4-1.1,53.9-1.1h51.8v-11.1
		c0-7.3-0.4-11.6-1.3-12.4c-1-1-18-1.3-69.6-1.3h-68.3L630,526.2z M822.9,524.6c-0.4,0.3-0.8,23.4-0.8,51.2
		c0,47.9,0.1,50.6,2.1,52.4c1.6,1.5,4,1.7,14.9,1.5l13-0.3l0.3-16.7c0.1-10.1,0.8-17.3,1.4-18.2c1-1.1,7.7-1.4,31.5-1.4h30.2
		l12.4,14.3c6.9,7.9,14.4,16.1,16.7,18.4l4.2,4.1h16.1c9.7,0,16.3-0.4,16.8-1.1c0.7-1-4.5-8.5-7.6-11.4c-0.7-0.6-4.1-5-7.8-9.7
		c-3.6-4.8-7.4-9.3-8.4-10.2c-2.7-2.3-2.1-5.3,1.6-7.3c4.4-2.2,9.8-7.6,13.7-13.5c2.8-4.5,3-5.4,2.9-16.1
		c-0.1-13.7-2.2-19.3-10.7-27.7c-9.4-9.3-7.7-9.1-79.8-9.1C851.5,523.8,823.2,524.1,822.9,524.6z M941.9,551.6
		c1.9,2.4,2.3,3.9,1.6,7.4c-1.2,8.2-0.1,8.1-46.8,8.1c-30.8,0-41.8-0.3-42.8-1.3c-1.4-1.4-1.9-15.2-0.5-16.3
		c0.3-0.4,19.9-0.8,43.5-0.8h42.8L941.9,551.6z"></path>
</g>
</svg>