<svg version="1.1" id="Layer_1" xmlns="http://www.w3.org/2000/svg" xmlns:xlink="http://www.w3.org/1999/xlink" x="0px" y="0px" viewBox="0 0 1179 258" enable-background="new 0 0 1179 258" xml:space="preserve">
<rect x="-243" y="-215.3" display="none" fill="#0C0C0C" width="1194.4" height="553"></rect>
<g>

		<linearGradient id="SVGID_1222_" gradientUnits="userSpaceOnUse" x1="89.5552" y1="368.7089" x2="97.5702" y2="961.0958" gradientTransform="matrix(1 0 0 1 0 -507.7796)">
		<stop offset="0" style="stop-color:#FFFFFF;stop-opacity:0.10"></stop>
		<stop offset="1" style="stop-color:#2D1B17;stop-opacity:0"></stop>
	</linearGradient>
	<path fill="url(#SVGID_1222_)" d="M97.4,249.8c-23,0-42.4-5.1-58.1-15.3C23.6,224.1,12.5,210,6.1,192.3l39.2-22.9
		c9.1,23.7,26.9,35.5,53.5,35.5c12.8,0,22.2-2.3,28.2-7c6-4.6,9-10.5,9-17.6c0-8.2-3.7-14.5-11-18.9c-7.3-4.6-20.4-9.6-39.2-14.9
		c-10.4-3.1-19.3-6.2-26.6-9.3c-7.1-3.1-14.3-7.2-21.6-12.3c-7.1-5.3-12.5-12-16.3-19.9c-3.8-8-5.6-17.3-5.6-27.9
		c0-21,7.4-37.7,22.2-50.1C53,14.5,71.1,8.2,92.1,8.2c18.8,0,35.3,4.6,49.5,13.9c14.4,9.1,25.6,21.8,33.5,38.2l-38.5,22.2
		c-9.3-19.9-24.1-29.9-44.5-29.9c-9.5,0-17,2.2-22.6,6.6c-5.3,4.2-8,9.7-8,16.6c0,7.3,3,13.3,9,17.9c6.2,4.4,17.9,9.3,35.2,14.6
		c7.1,2.2,12.4,4,15.9,5.3c3.8,1.1,8.7,3,14.9,5.6c6.4,2.4,11.3,4.8,14.6,7c3.5,2.2,7.5,5.2,12,9c4.4,3.8,7.7,7.6,10,11.6
		c2.4,4,4.4,8.9,6,14.6c1.8,5.5,2.7,11.6,2.7,18.3c0,21.5-7.9,38.5-23.6,51.1C142.7,243.5,122.4,249.8,97.4,249.8z"></path>

		<linearGradient id="SVGID_00000174567999623160319280000013445256413754439087_" gradientUnits="userSpaceOnUse" x1="319.6808" y1="365.5952" x2="327.696" y2="957.9822" gradientTransform="matrix(1 0 0 1 0 -507.7796)">
		<stop offset="0" style="stop-color:#FFFFFF;stop-opacity:0.10"></stop>
		<stop offset="1" style="stop-color:#2D1B17;stop-opacity:0"></stop>
	</linearGradient>
	<path fill="url(#SVGID_00000174567999623160319280000013445256413754439087_)" d="M408.9,215c-23.5,23.2-52,34.9-85.7,34.9
		S261,238.2,237.5,215c-23.2-23.5-34.9-52.1-34.9-86s11.6-62.4,34.9-85.7c23.5-23.5,52-35.2,85.7-35.2s62.2,11.7,85.7,35.2
		c23.5,23.2,35.2,51.8,35.2,85.7C444.1,162.9,432.3,191.5,408.9,215z M269.8,183.8C284.2,198,302,205,323.3,205
		c21.2,0,39.1-7.1,53.5-21.2c14.4-14.4,21.6-32.6,21.6-54.8c0-22.1-7.2-40.4-21.6-54.8s-32.2-21.6-53.5-21.6
		c-21.2,0-39.1,7.2-53.5,21.6s-21.6,32.6-21.6,54.8C248.2,151.1,255.4,169.4,269.8,183.8z"></path>

		<linearGradient id="SVGID_00000091738315027608642530000016405146541248020656_" gradientUnits="userSpaceOnUse" x1="576.0261" y1="362.1269" x2="584.0412" y2="954.5138" gradientTransform="matrix(1 0 0 1 0 -507.7796)">
		<stop offset="0" style="stop-color:#FFFFFF;stop-opacity:0.10"></stop>
		<stop offset="1" style="stop-color:#2D1B17;stop-opacity:0"></stop>
	</linearGradient>
	<path fill="url(#SVGID_00000091738315027608642530000016405146541248020656_)" d="M589.8,249.8c-35,0-63.9-11.6-86.7-34.9
		c-22.8-23.2-34.2-51.9-34.2-86c0-34.3,11.4-63,34.2-86C525.9,19.7,554.8,8,589.8,8c21,0,40.4,5,58.1,14.9
		c17.9,9.7,31.9,23,41.8,39.8l-39.5,22.9c-5.8-10.4-13.9-18.5-24.6-24.2c-10.6-6-22.6-9-35.9-9c-22.6,0-40.8,7.1-54.8,21.2
		c-13.7,14.2-20.6,32.5-20.6,55.1c0,22.4,6.9,40.6,20.6,54.8c13.9,14.2,32.2,21.2,54.8,21.2c13.3,0,25.2-2.9,35.9-8.6
		c10.8-6,19-14.1,24.6-24.2l39.5,22.9c-10,16.8-23.8,30.2-41.5,40.2C630.5,245,611,249.8,589.8,249.8z"></path>

		<linearGradient id="SVGID_00000041985075803629989380000011470794533260846745_" gradientUnits="userSpaceOnUse" x1="740.3539" y1="359.9035" x2="748.3688" y2="952.2904" gradientTransform="matrix(1 0 0 1 0 -507.7796)">
		<stop offset="0" style="stop-color:#FFFFFF;stop-opacity:0.10"></stop>
		<stop offset="1" style="stop-color:#2D1B17;stop-opacity:0"></stop>
	</linearGradient>
	<path fill="url(#SVGID_00000041985075803629989380000011470794533260846745_)" d="M721.2,12.8H767v232.4h-45.8V12.8z"></path>

		<linearGradient id="SVGID_00000176729909526118898900000011025401443373168256_" gradientUnits="userSpaceOnUse" x1="897.4528" y1="357.7779" x2="905.4679" y2="950.1649" gradientTransform="matrix(1 0 0 1 0 -507.7796)">
		<stop offset="0" style="stop-color:#FFFFFF;stop-opacity:0.10"></stop>
		<stop offset="1" style="stop-color:#2D1B17;stop-opacity:0"></stop>
	</linearGradient>
	<path fill="url(#SVGID_00000176729909526118898900000011025401443373168256_)" d="M962.8,245.2l-13.9-41.8h-92.6l-13.9,41.8h-49.5
		l81.3-232.4H931l81.7,232.4H962.8z M870.8,160.5h63.7l-31.9-95L870.8,160.5z"></path>

		<linearGradient id="SVGID_00000130634499995239059480000010140916113324191161_" gradientUnits="userSpaceOnUse" x1="1100.562" y1="355.0298" x2="1108.5771" y2="947.4168" gradientTransform="matrix(1 0 0 1 0 -507.7796)">
		<stop offset="0" style="stop-color:#FFFFFF;stop-opacity:0.10"></stop>
		<stop offset="1" style="stop-color:#2D1B17;stop-opacity:0"></stop>
	</linearGradient>
	<path fill="url(#SVGID_00000130634499995239059480000010140916113324191161_)" d="M1084.3,201.4h88.6v43.8h-134.5V12.8h45.8v188.6
		H1084.3z"></path>
</g>
</svg>