<svg class="block h-5 mr-2 w-5" width="15" height="15" viewBox="0 0 15 15" fill="none" xmlns="http://www.w3.org/2000/svg">
<path d="M1.58901 1.47641H4.90352L5.97186 4.14727L4.25562 5.29143C4.05025 5.42834 3.92689 5.65884 3.92689 5.90566C3.92877 5.97478 3.92689 5.9064 3.92689 5.9064L3.9269 5.90717L3.9269 5.90882L3.92692 5.91255L3.92703 5.92165C3.92714 5.92846 3.92733 5.93672 3.92764 5.9464C3.92826 5.96575 3.92939 5.99077 3.93141 6.02109C3.93545 6.08169 3.94307 6.16362 3.95738 6.26381C3.98599 6.46409 4.04152 6.73844 4.14933 7.06186C4.3658 7.71126 4.79114 8.55209 5.61952 9.38048C6.44791 10.2089 7.28874 10.6342 7.93814 10.8507C8.26156 10.9585 8.53591 11.014 8.73619 11.0426C8.83638 11.0569 8.91831 11.0645 8.97891 11.0686C9.00923 11.0706 9.03425 11.0717 9.0536 11.0724C9.06328 11.0727 9.07154 11.0729 9.07835 11.073L9.08745 11.0731L9.09118 11.0731L9.09283 11.0731L9.0936 11.0731C9.0936 11.0731 9.17601 11.0686 9.09434 11.0731C9.37395 11.0731 9.62957 10.9151 9.75461 10.665L10.249 9.67628L13.5236 10.222V13.411C11.9652 13.6364 7.75627 13.8585 4.44888 10.5511C1.1415 7.24373 1.36363 3.03484 1.58901 1.47641ZM5.45767 6.26449L6.79083 5.37572C7.37175 4.98844 7.60197 4.24718 7.34268 3.59894L6.27433 0.928088C6.05012 0.367555 5.50723 0 4.90352 0H1.55044C0.879771 0 0.248472 0.465928 0.138372 1.19361C-0.112109 2.84911 -0.453048 7.73715 3.4049 11.5951C7.26285 15.453 12.1509 15.1121 13.8064 14.8616C14.5341 14.7515 15 14.1202 15 13.4496V10.222C15 9.50032 14.4782 8.88437 13.7663 8.76572L10.4917 8.21996C9.85238 8.1134 9.21831 8.43629 8.92845 9.01601L8.67266 9.52758C8.59227 9.50785 8.50252 9.48252 8.40503 9.45002C7.94712 9.29739 7.31153 8.98452 6.66351 8.33649C6.01548 7.68847 5.70261 7.05288 5.54998 6.59497C5.50873 6.47124 5.47904 6.35999 5.45767 6.26449Z" fill="#bf2b12"></path>
</svg>