<svg version="1.1" id="Layer_1" xmlns="http://www.w3.org/2000/svg" xmlns:xlink="http://www.w3.org/1999/xlink" x="0px" y="0px" viewBox="0 0 723 521.3" enable-background="new 0 0 723 521.3" xml:space="preserve">
<rect x="-248" y="0" display="none" fill="#0C0C0C" width="1194.4" height="553"></rect>
<g>
	<g>

			<linearGradient id="SVGID_120_" gradientUnits="userSpaceOnUse" x1="237.2736" y1="-5.8452" x2="249.4575" y2="793.9828" gradientTransform="matrix(1 0 0 1 0 -77.1129)">
			<stop offset="0" style="stop-color:#FFFFFF;stop-opacity:0.10"></stop>
			<stop offset="1" style="stop-color:#2D1B17;stop-opacity:0"></stop>
		</linearGradient>
		<path fill="url(#SVGID_120_)" d="M103,336.4L10.9,7.4H79l63,243.9L210.6,7.4h55.5l69.1,243.9l63-243.9h68.2l-92.1,329h-73.8
			l-62-217.1l-61.6,217.1H103z"></path>

			<linearGradient id="SVGID_00000051356625688287324270000008347281084560421305_" gradientUnits="userSpaceOnUse" x1="605.233" y1="-11.4503" x2="617.4171" y2="788.3775" gradientTransform="matrix(1 0 0 1 0 -77.1129)">
			<stop offset="0" style="stop-color:#FFFFFF;stop-opacity:0.10"></stop>
			<stop offset="1" style="stop-color:#2D1B17;stop-opacity:0"></stop>
		</linearGradient>
		<path fill="url(#SVGID_00000051356625688287324270000008347281084560421305_)" d="M573.5,274.3h138.7v62H508.6V7.4h201.2v62H573.5
			v70H698v61.1H573.5V274.3z"></path>
	</g>
	<g>

			<linearGradient id="SVGID_00000020386969871267638710000018022030974989405832_" gradientUnits="userSpaceOnUse" x1="61.2368" y1="250.0583" x2="69.1258" y2="833.4474" gradientTransform="matrix(1 0 0 1 0 -77.1129)">
			<stop offset="0" style="stop-color:#FFFFFF;stop-opacity:0.10"></stop>
			<stop offset="1" style="stop-color:#2D1B17;stop-opacity:0"></stop>
		</linearGradient>
		<path fill="url(#SVGID_00000020386969871267638710000018022030974989405832_)" d="M59.9,382.4c18,0,33.1,6.3,45.1,19
			c12.2,12.7,18.2,28.3,18.2,46.8s-6.1,34.2-18.2,46.8c-12,12.7-27.1,19-45.1,19H7.6V382.4H59.9z M59.9,489.2
			c11.4,0,20.7-3.8,27.8-11.3c7.1-7.6,10.7-17.5,10.7-29.7s-3.6-22-10.7-29.5c-7.1-7.6-16.4-11.5-27.8-11.5H33.5v82H59.9z"></path>

			<linearGradient id="SVGID_00000070076340776391520460000011100141414192145562_" gradientUnits="userSpaceOnUse" x1="180.0061" y1="248.4523" x2="187.895" y2="831.8414" gradientTransform="matrix(1 0 0 1 0 -77.1129)">
			<stop offset="0" style="stop-color:#FFFFFF;stop-opacity:0.10"></stop>
			<stop offset="1" style="stop-color:#2D1B17;stop-opacity:0"></stop>
		</linearGradient>
		<path fill="url(#SVGID_00000070076340776391520460000011100141414192145562_)" d="M169.4,489.2h55.5V514h-81.4V382.4H224v24.8
			h-54.5v28h49.8v24.4h-49.8v29.6H169.4z"></path>

			<linearGradient id="SVGID_00000070100034534875310830000008588772839554908592_" gradientUnits="userSpaceOnUse" x1="278.6659" y1="247.1181" x2="286.555" y2="830.5071" gradientTransform="matrix(1 0 0 1 0 -77.1129)">
			<stop offset="0" style="stop-color:#FFFFFF;stop-opacity:0.10"></stop>
			<stop offset="1" style="stop-color:#2D1B17;stop-opacity:0"></stop>
		</linearGradient>
		<path fill="url(#SVGID_00000070100034534875310830000008588772839554908592_)" d="M271,489.2h50.2V514h-76.1V382.4H271V489.2z"></path>

			<linearGradient id="SVGID_00000024697708227317890720000000046096304927096220_" gradientUnits="userSpaceOnUse" x1="346.9755" y1="246.1944" x2="354.8646" y2="829.5834" gradientTransform="matrix(1 0 0 1 0 -77.1129)">
			<stop offset="0" style="stop-color:#FFFFFF;stop-opacity:0.10"></stop>
			<stop offset="1" style="stop-color:#2D1B17;stop-opacity:0"></stop>
		</linearGradient>
		<path fill="url(#SVGID_00000024697708227317890720000000046096304927096220_)" d="M337.8,382.4h25.9V514h-25.9V382.4z"></path>

			<linearGradient id="SVGID_00000060032025262708998200000015463158033656554166_" gradientUnits="userSpaceOnUse" x1="435.7491" y1="244.9939" x2="443.6381" y2="828.383" gradientTransform="matrix(1 0 0 1 0 -77.1129)">
			<stop offset="0" style="stop-color:#FFFFFF;stop-opacity:0.10"></stop>
			<stop offset="1" style="stop-color:#2D1B17;stop-opacity:0"></stop>
		</linearGradient>
		<path fill="url(#SVGID_00000060032025262708998200000015463158033656554166_)" d="M422.5,514l-44.2-131.6h28.2l32.1,101.1
			l32-101.1H499L454.7,514H422.5z"></path>

			<linearGradient id="SVGID_00000177452006522954712630000006763826752522822029_" gradientUnits="userSpaceOnUse" x1="550.0384" y1="243.4485" x2="557.9274" y2="826.8375" gradientTransform="matrix(1 0 0 1 0 -77.1129)">
			<stop offset="0" style="stop-color:#FFFFFF;stop-opacity:0.10"></stop>
			<stop offset="1" style="stop-color:#2D1B17;stop-opacity:0"></stop>
		</linearGradient>
		<path fill="url(#SVGID_00000177452006522954712630000006763826752522822029_)" d="M539.6,489.2H595V514h-81.4V382.4h80.5v24.8
			h-54.5v28h49.8v24.4h-49.8V489.2z"></path>

			<linearGradient id="SVGID_00000080891694567646926550000012523213172006511751_" gradientUnits="userSpaceOnUse" x1="660.6291" y1="241.953" x2="668.518" y2="825.3419" gradientTransform="matrix(1 0 0 1 0 -77.1129)">
			<stop offset="0" style="stop-color:#FFFFFF;stop-opacity:0.10"></stop>
			<stop offset="1" style="stop-color:#2D1B17;stop-opacity:0"></stop>
		</linearGradient>
		<path fill="url(#SVGID_00000080891694567646926550000012523213172006511751_)" d="M687.4,514l-26.5-45.7h-19.7V514h-25.9V382.4
			h52.6c12.2,0,22.5,4.3,31,12.8s12.8,18.8,12.8,30.8c0,8.1-2.3,15.7-7,22.7c-4.6,6.9-10.8,12.1-18.4,15.6l29.1,49.6h-28V514z
			 M641.1,406.6v38.9h26.7c4.9,0,9.1-1.9,12.6-5.6c3.5-3.9,5.3-8.5,5.3-13.9s-1.8-10-5.3-13.7c-3.5-3.8-7.7-5.6-12.6-5.6h-26.7
			V406.6z"></path>
	</g>
</g>
</svg>