<svg class="block h-5 w-5" width="25" height="25" viewBox="0 0 25 25" fill="none" xmlns="http://www.w3.org/2000/svg">
  <path d="M24.9938 24.5551V24.5541H25V15.6C25 11.2197 24.057 7.84521 18.936 7.84521C16.474 7.84521 14.8222 9.19628 14.1476 10.4768H14.0764V8.25426H9.22095V24.5542H14.2769V16.483C14.2769 14.358 14.6797 12.3031 17.3113 12.3031C19.9044 12.3031 19.9432 14.7283 19.9432 16.6193V24.5551H24.9938Z" fill="#bf2b12"></path>
  <path d="M6.05011 8.25522H0.988037V24.5551H6.05011V8.25522Z" fill="#bf2b12"></path>
  <path d="M3.51708 0.140289C1.8985 0.140289 0.585205 1.45359 0.585205 3.07217C0.585205 4.69046 1.8985 6.03137 3.51708 6.03137C5.13538 6.03137 6.44877 4.69046 6.44877 3.07217C6.44777 1.45359 5.13442 0.140289 3.51708 0.140289Z" fill="#bf2b12"></path>
</svg>